<svg width="86" height="51" viewBox="0 0 86 51" fill="none" xmlns="http://www.w3.org/2000/svg">
<g opacity="0.5">
<mask id="path-1-outside-1_1_8143" maskUnits="userSpaceOnUse" x="-1" y="-1" width="88" height="53" fill="black">
<rect fill="white" x="-1" y="-1" width="88" height="53"/>
<path d="M42.4247 25.88C42.4247 31.96 41.7314 36.84 40.3447 40.52C38.958 44.2 36.718 46.8667 33.6247 48.52C30.5314 50.1733 26.398 51 21.2247 51C16.1047 51 11.998 50.1733 8.90469 48.52C5.81135 46.8667 3.57135 44.2 2.18469 40.52C0.798021 36.84 0.104688 31.96 0.104688 25.88C0.104688 19.7467 0.798021 14.84 2.18469 11.16C3.57135 7.48 5.81135 4.81333 8.90469 3.16C11.998 1.50666 16.1047 0.679999 21.2247 0.679999C26.398 0.679999 30.5314 1.50666 33.6247 3.16C36.718 4.81333 38.958 7.48 40.3447 11.16C41.7314 14.84 42.4247 19.7467 42.4247 25.88ZM21.2247 40.36C24.8514 40.36 27.2247 39.1867 28.3447 36.84C29.518 34.44 30.1047 30.7867 30.1047 25.88C30.1047 20.92 29.518 17.2667 28.3447 14.92C27.2247 12.5733 24.8514 11.4 21.2247 11.4C17.6514 11.4 15.278 12.5733 14.1047 14.92C12.9847 17.2667 12.4247 20.92 12.4247 25.88C12.4247 30.7867 12.9847 34.44 14.1047 36.84C15.278 39.1867 17.6514 40.36 21.2247 40.36ZM50.7953 2.6C53.142 1.85333 55.5686 1.34667 58.0753 1.08C60.6353 0.759997 63.382 0.599996 66.3153 0.599996C70.902 0.599996 74.5286 1.05333 77.1953 1.96C79.862 2.81333 81.7553 4.14667 82.8753 5.96C84.0486 7.77333 84.6353 10.0667 84.6353 12.84C84.6353 16.0933 83.862 18.84 82.3153 21.08C80.7686 23.2667 78.102 24.6 74.3153 25.08V25.48C78.262 25.6933 81.062 26.7867 82.7153 28.76C84.422 30.7333 85.2753 33.16 85.2753 36.04C85.2753 40.84 83.6753 44.4667 80.4753 46.92C77.3286 49.32 72.262 50.6 65.2753 50.76C61.702 50.8133 58.5553 50.6267 55.8353 50.2C53.1153 49.7733 50.6353 49.1867 48.3953 48.44V38.44H48.8753C51.0086 39.1333 53.1686 39.64 55.3553 39.96C57.542 40.28 60.022 40.44 62.7953 40.44C66.5286 40.44 69.222 40.04 70.8753 39.24C72.5286 38.44 73.3553 37.0533 73.3553 35.08C73.3553 33.2667 72.7153 32.04 71.4353 31.4C70.2086 30.7067 67.9153 30.36 64.5553 30.36H58.1553V20.04H63.5153C67.3553 20.04 69.942 19.72 71.2753 19.08C72.662 18.3867 73.3553 17.16 73.3553 15.4C73.3553 13.5867 72.582 12.3867 71.0353 11.8C69.542 11.2133 66.902 10.92 63.1153 10.92C61.0353 10.92 58.9286 11.08 56.7953 11.4C54.7153 11.72 52.822 12.1467 51.1153 12.68L50.7953 12.6V2.6Z"/>
</mask>
<path d="M40.3447 40.52L41.2805 40.8726V40.8726L40.3447 40.52ZM8.90469 48.52L9.37607 47.6381L8.90469 48.52ZM2.18469 40.52L3.12046 40.1674L2.18469 40.52ZM2.18469 11.16L3.12046 11.5126L2.18469 11.16ZM8.90469 3.16L8.43331 2.27806H8.43331L8.90469 3.16ZM33.6247 3.16L34.0961 2.27806L33.6247 3.16ZM40.3447 11.16L41.2805 10.8074L40.3447 11.16ZM28.3447 36.84L27.4463 36.4008L27.4422 36.4093L28.3447 36.84ZM28.3447 14.92L27.4422 15.3507L27.4462 15.359L27.4503 15.3672L28.3447 14.92ZM14.1047 14.92L13.2103 14.4728L13.2062 14.481L13.2022 14.4893L14.1047 14.92ZM14.1047 36.84L13.1985 37.2629L13.2042 37.2751L13.2103 37.2872L14.1047 36.84ZM41.4247 25.88C41.4247 31.8981 40.7365 36.6443 39.4089 40.1674L41.2805 40.8726C42.7263 37.0357 43.4247 32.0219 43.4247 25.88H41.4247ZM39.4089 40.1674C38.0967 43.6499 36.0066 46.1131 33.1533 47.6381L34.0961 49.4019C37.4295 47.6203 39.8194 44.7501 41.2805 40.8726L39.4089 40.1674ZM33.1533 47.6381C30.2576 49.1858 26.3059 50 21.2247 50V52C26.4901 52 30.8051 51.1609 34.0961 49.4019L33.1533 47.6381ZM21.2247 50C16.1988 50 12.273 49.1864 9.37607 47.6381L8.43331 49.4019C11.7231 51.1602 16.0105 52 21.2247 52V50ZM9.37607 47.6381C6.52281 46.1131 4.43273 43.6499 3.12046 40.1674L1.24892 40.8726C2.70998 44.7501 5.0999 47.6203 8.43331 49.4019L9.37607 47.6381ZM3.12046 40.1674C1.79292 36.6443 1.10469 31.8981 1.10469 25.88H-0.895313C-0.895313 32.0219 -0.196875 37.0357 1.24892 40.8726L3.12046 40.1674ZM1.10469 25.88C1.10469 19.8073 1.7932 15.0349 3.12046 11.5126L1.24892 10.8074C-0.197158 14.6451 -0.895313 19.686 -0.895313 25.88H1.10469ZM3.12046 11.5126C4.43273 8.03005 6.52281 5.56694 9.37607 4.04193L8.43331 2.27806C5.0999 4.05972 2.70998 6.92994 1.24892 10.8074L3.12046 11.5126ZM9.37607 4.04193C12.273 2.49358 16.1988 1.68 21.2247 1.68V-0.32C16.0105 -0.32 11.7231 0.519749 8.43331 2.27806L9.37607 4.04193ZM21.2247 1.68C26.3059 1.68 30.2576 2.49424 33.1533 4.04193L34.0961 2.27806C30.8051 0.519094 26.4901 -0.32 21.2247 -0.32V1.68ZM33.1533 4.04193C36.0066 5.56694 38.0967 8.03005 39.4089 11.5126L41.2805 10.8074C39.8194 6.92994 37.4295 4.05972 34.0961 2.27806L33.1533 4.04193ZM39.4089 11.5126C40.7362 15.0349 41.4247 19.8073 41.4247 25.88H43.4247C43.4247 19.686 42.7265 14.6451 41.2805 10.8074L39.4089 11.5126ZM21.2247 41.36C25.0603 41.36 27.8967 40.1002 29.2472 37.2707L27.4422 36.4093C26.5527 38.2731 24.6424 39.36 21.2247 39.36V41.36ZM29.2431 37.2792C30.5182 34.6711 31.1047 30.832 31.1047 25.88H29.1047C29.1047 30.7413 28.5179 34.2089 27.4463 36.4008L29.2431 37.2792ZM31.1047 25.88C31.1047 20.8794 30.5195 17.0335 29.2391 14.4728L27.4503 15.3672C28.5166 17.4998 29.1047 20.9606 29.1047 25.88H31.1047ZM29.2472 14.4893C27.8967 11.6598 25.0603 10.4 21.2247 10.4V12.4C24.6424 12.4 26.5527 13.4869 27.4422 15.3507L29.2472 14.4893ZM21.2247 10.4C17.4317 10.4 14.614 11.6652 13.2103 14.4728L14.9991 15.3672C15.942 13.4814 17.871 12.4 21.2247 12.4V10.4ZM13.2022 14.4893C11.983 17.0439 11.4247 20.8823 11.4247 25.88H13.4247C13.4247 20.9577 13.9864 17.4895 15.0072 15.3507L13.2022 14.4893ZM11.4247 25.88C11.4247 30.8289 11.9842 34.6608 13.1985 37.2629L15.0109 36.4171C13.9852 34.2192 13.4247 30.7444 13.4247 25.88H11.4247ZM13.2103 37.2872C14.614 40.0947 17.4317 41.36 21.2247 41.36V39.36C17.871 39.36 15.942 38.2786 14.9991 36.3928L13.2103 37.2872ZM50.7953 2.6L50.4921 1.64707L49.7953 1.86878V2.6H50.7953ZM58.0753 1.08L58.1811 2.07439L58.1902 2.07342L58.1993 2.07228L58.0753 1.08ZM77.1953 1.96L76.8734 2.90677L76.882 2.90967L76.8905 2.91242L77.1953 1.96ZM82.8753 5.96L82.0245 6.48549L82.03 6.49443L82.0357 6.50325L82.8753 5.96ZM82.3153 21.08L83.1318 21.6575L83.1382 21.6482L82.3153 21.08ZM74.3153 25.08L74.1896 24.0879L73.3153 24.1988V25.08H74.3153ZM74.3153 25.48H73.3153V26.4274L74.2613 26.4785L74.3153 25.48ZM82.7153 28.76L81.9488 29.4022L81.9538 29.4082L81.959 29.4142L82.7153 28.76ZM80.4753 46.92L81.0818 47.7151L81.0837 47.7136L80.4753 46.92ZM65.2753 50.76L65.2902 51.7599L65.2982 51.7597L65.2753 50.76ZM55.8353 50.2L55.6803 51.1879L55.8353 50.2ZM48.3953 48.44H47.3953V49.1608L48.0791 49.3887L48.3953 48.44ZM48.3953 38.44V37.44H47.3953V38.44H48.3953ZM48.8753 38.44L49.1844 37.489L49.0337 37.44H48.8753V38.44ZM55.3553 39.96L55.5001 38.9705L55.3553 39.96ZM70.8753 39.24L70.4398 38.3398L70.8753 39.24ZM71.4353 31.4L70.9433 32.2706L70.9654 32.2831L70.9881 32.2944L71.4353 31.4ZM58.1553 30.36H57.1553V31.36H58.1553V30.36ZM58.1553 20.04V19.04H57.1553V20.04H58.1553ZM71.2753 19.08L71.708 19.9815L71.7153 19.978L71.7225 19.9744L71.2753 19.08ZM71.0353 11.8L70.6696 12.7308L70.6807 12.735L71.0353 11.8ZM56.7953 11.4L56.647 10.4111L56.6433 10.4116L56.7953 11.4ZM51.1153 12.68L50.8728 13.6501L51.1454 13.7183L51.4136 13.6345L51.1153 12.68ZM50.7953 12.6H49.7953V13.3808L50.5528 13.5701L50.7953 12.6ZM51.0985 3.55293C53.3794 2.82718 55.7399 2.33409 58.1811 2.07439L57.9695 0.0856094C55.3974 0.35924 52.9045 0.879488 50.4921 1.64707L51.0985 3.55293ZM58.1993 2.07228C60.7131 1.75806 63.4179 1.59999 66.3153 1.59999V-0.400005C63.346 -0.400005 60.5575 -0.238064 57.9513 0.0877209L58.1993 2.07228ZM66.3153 1.59999C70.8523 1.59999 74.3549 2.05048 76.8734 2.90677L77.5172 1.01322C74.7024 0.056179 70.9517 -0.400005 66.3153 -0.400005V1.59999ZM76.8905 2.91242C79.4024 3.71623 81.0646 4.93141 82.0245 6.48549L83.7261 5.43451C82.446 3.36192 80.3215 1.91043 77.5001 1.00757L76.8905 2.91242ZM82.0357 6.50325C83.0784 8.11457 83.6353 10.2052 83.6353 12.84H85.6353C85.6353 9.9281 85.0189 7.43209 83.7149 5.41675L82.0357 6.50325ZM83.6353 12.84C83.6353 15.9308 82.9027 18.4693 81.4924 20.5118L83.1382 21.6482C84.8212 19.2107 85.6353 16.2559 85.6353 12.84H83.6353ZM81.4989 20.5025C80.1732 22.3768 77.8189 23.6279 74.1896 24.0879L74.4411 26.0721C78.385 25.5721 81.3641 24.1565 83.1317 21.6575L81.4989 20.5025ZM73.3153 25.08V25.48H75.3153V25.08H73.3153ZM74.2613 26.4785C78.0779 26.6848 80.5496 27.7322 81.9488 29.4022L83.4818 28.1178C81.5743 25.8411 78.4461 24.7018 74.3693 24.4815L74.2613 26.4785ZM81.959 29.4142C83.4918 31.1865 84.2753 33.3734 84.2753 36.04H86.2753C86.2753 32.9466 85.3522 30.2802 83.4717 28.1058L81.959 29.4142ZM84.2753 36.04C84.2753 40.5954 82.7717 43.8994 79.8669 46.1264L81.0837 47.7136C84.5789 45.034 86.2753 41.0846 86.2753 36.04H84.2753ZM79.8689 46.1249C76.9764 48.331 72.1709 49.6018 65.2524 49.7603L65.2982 51.7597C72.3531 51.5982 77.6809 50.309 81.0818 47.7151L79.8689 46.1249ZM65.2604 49.7601C61.7281 49.8128 58.6404 49.6278 55.9903 49.2121L55.6803 51.1879C58.4702 51.6255 61.6758 51.8138 65.2902 51.7599L65.2604 49.7601ZM55.9903 49.2121C53.3163 48.7926 50.8912 48.2179 48.7115 47.4913L48.0791 49.3887C50.3795 50.1555 52.9144 50.754 55.6803 51.1879L55.9903 49.2121ZM49.3953 48.44V38.44H47.3953V48.44H49.3953ZM48.3953 39.44H48.8753V37.44H48.3953V39.44ZM48.5662 39.391C50.7523 40.1015 52.9673 40.6212 55.2105 40.9495L55.5001 38.9705C53.37 38.6588 51.265 38.1651 49.1844 37.489L48.5662 39.391ZM55.2105 40.9495C57.4554 41.278 59.9851 41.44 62.7953 41.44V39.44C60.0588 39.44 57.6286 39.282 55.5001 38.9705L55.2105 40.9495ZM62.7953 41.44C66.555 41.44 69.4422 41.0443 71.3109 40.1402L70.4398 38.3398C69.0017 39.0357 66.5023 39.44 62.7953 39.44V41.44ZM71.3109 40.1402C72.2886 39.6671 73.0675 38.9957 73.5943 38.1121C74.1184 37.2328 74.3553 36.2069 74.3553 35.08H72.3553C72.3553 35.9264 72.1788 36.5805 71.8764 37.0879C71.5765 37.5909 71.1154 38.0129 70.4398 38.3398L71.3109 40.1402ZM74.3553 35.08C74.3553 33.0084 73.5971 31.3629 71.8825 30.5056L70.9881 32.2944C71.8335 32.7171 72.3553 33.5249 72.3553 35.08H74.3553ZM71.9274 30.5294C71.1614 30.0965 70.1443 29.8126 68.9448 29.6312C67.7321 29.4479 66.2653 29.36 64.5553 29.36V31.36C66.2054 31.36 67.5652 31.4454 68.6459 31.6088C69.7397 31.7741 70.4825 32.0102 70.9433 32.2706L71.9274 30.5294ZM64.5553 29.36H58.1553V31.36H64.5553V29.36ZM59.1553 30.36V20.04H57.1553V30.36H59.1553ZM58.1553 21.04H63.5153V19.04H58.1553V21.04ZM63.5153 21.04C65.4591 21.04 67.1099 20.9592 68.4581 20.7924C69.7901 20.6276 70.8963 20.3712 71.708 19.9815L70.8426 18.1785C70.321 18.4288 69.4671 18.6524 68.2125 18.8076C66.9741 18.9608 65.4115 19.04 63.5153 19.04V21.04ZM71.7225 19.9744C72.5753 19.5481 73.2515 18.9359 73.7059 18.1321C74.1561 17.3356 74.3553 16.4101 74.3553 15.4H72.3553C72.3553 16.1499 72.2079 16.7177 71.9648 17.1479C71.7258 17.5707 71.362 17.9186 70.8281 18.1856L71.7225 19.9744ZM74.3553 15.4C74.3553 14.3527 74.1314 13.3983 73.6159 12.5983C73.0957 11.7911 72.3302 11.2217 71.39 10.865L70.6807 12.735C71.2871 12.965 71.6816 13.2888 71.9347 13.6817C72.1925 14.0817 72.3553 14.6339 72.3553 15.4H74.3553ZM71.401 10.8692C69.7141 10.2066 66.9024 9.92 63.1153 9.92V11.92C66.9015 11.92 69.3698 12.2201 70.6697 12.7308L71.401 10.8692ZM63.1153 9.92C60.9839 9.92 58.8276 10.084 56.647 10.4111L56.9437 12.3889C59.0297 12.076 61.0868 11.92 63.1153 11.92V9.92ZM56.6433 10.4116C54.5221 10.7379 52.579 11.1749 50.817 11.7255L51.4136 13.6345C53.0649 13.1184 54.9085 12.702 56.9474 12.3884L56.6433 10.4116ZM51.3578 11.7099L51.0378 11.6299L50.5528 13.5701L50.8728 13.6501L51.3578 11.7099ZM51.7953 12.6V2.6H49.7953V12.6H51.7953Z" fill="#21E786" mask="url(#path-1-outside-1_1_8143)"/>
</g>
</svg>
