<svg width="86" height="51" viewBox="0 0 86 51" fill="none" xmlns="http://www.w3.org/2000/svg">
<g opacity="0.5">
<mask id="path-1-outside-1_1_8149" maskUnits="userSpaceOnUse" x="-1" y="-1" width="88" height="53" fill="black">
<rect fill="white" x="-1" y="-1" width="88" height="53"/>
<path d="M42.4325 25.88C42.4325 31.96 41.7392 36.84 40.3525 40.52C38.9658 44.2 36.7258 46.8667 33.6325 48.52C30.5392 50.1733 26.4058 51 21.2325 51C16.1125 51 12.0058 50.1733 8.9125 48.52C5.81917 46.8667 3.57917 44.2 2.1925 40.52C0.805833 36.84 0.1125 31.96 0.1125 25.88C0.1125 19.7467 0.805833 14.84 2.1925 11.16C3.57917 7.48 5.81917 4.81333 8.9125 3.16C12.0058 1.50666 16.1125 0.679999 21.2325 0.679999C26.4058 0.679999 30.5392 1.50666 33.6325 3.16C36.7258 4.81333 38.9658 7.48 40.3525 11.16C41.7392 14.84 42.4325 19.7467 42.4325 25.88ZM21.2325 40.36C24.8592 40.36 27.2325 39.1867 28.3525 36.84C29.5258 34.44 30.1125 30.7867 30.1125 25.88C30.1125 20.92 29.5258 17.2667 28.3525 14.92C27.2325 12.5733 24.8592 11.4 21.2325 11.4C17.6592 11.4 15.2858 12.5733 14.1125 14.92C12.9925 17.2667 12.4325 20.92 12.4325 25.88C12.4325 30.7867 12.9925 34.44 14.1125 36.84C15.2858 39.1867 17.6592 40.36 21.2325 40.36ZM48.5631 15.24V4.76C50.4298 3.58667 52.8831 2.62666 55.9231 1.88C58.9631 1.13333 62.2698 0.759998 65.8431 0.759998C71.5498 0.759998 76.1098 1.88 79.5231 4.12C82.9898 6.36 84.7231 10.1467 84.7231 15.48C84.7231 19.6933 83.7365 23.08 81.7631 25.64C79.8431 28.1467 76.4298 30.3333 71.5231 32.2C66.7765 34.0133 63.4965 35.56 61.6831 36.84C59.9231 38.0667 59.0431 39.2933 59.0431 40.52H85.1231V50.68H47.2031V41.72C47.2031 39 47.6565 36.68 48.5631 34.76C49.5231 32.84 51.1498 31.08 53.4431 29.48C55.7365 27.88 58.9098 26.2267 62.9631 24.52C66.0031 23.24 68.3765 22.0133 70.0831 20.84C71.8431 19.6133 72.6965 18.1467 72.6431 16.44C72.5898 14.4133 71.8165 13 70.3231 12.2C68.8831 11.3467 66.8298 10.92 64.1631 10.92C61.6031 10.92 58.9898 11.3733 56.3231 12.28C53.6565 13.1333 51.3098 14.12 49.2831 15.24H48.5631Z"/>
</mask>
<path d="M40.3525 40.52L41.2883 40.8726V40.8726L40.3525 40.52ZM8.9125 48.52L9.38388 47.6381L8.9125 48.52ZM2.1925 40.52L3.12827 40.1674L2.1925 40.52ZM2.1925 11.16L3.12827 11.5126L2.1925 11.16ZM8.9125 3.16L8.44112 2.27806H8.44112L8.9125 3.16ZM33.6325 3.16L34.1039 2.27806L33.6325 3.16ZM40.3525 11.16L41.2883 10.8074L40.3525 11.16ZM28.3525 36.84L27.4541 36.4008L27.45 36.4093L28.3525 36.84ZM28.3525 14.92L27.45 15.3507L27.454 15.359L27.4581 15.3672L28.3525 14.92ZM14.1125 14.92L13.2181 14.4728L13.214 14.481L13.21 14.4893L14.1125 14.92ZM14.1125 36.84L13.2063 37.2629L13.212 37.2751L13.2181 37.2872L14.1125 36.84ZM41.4325 25.88C41.4325 31.8981 40.7443 36.6443 39.4167 40.1674L41.2883 40.8726C42.7341 37.0357 43.4325 32.0219 43.4325 25.88H41.4325ZM39.4167 40.1674C38.1045 43.6499 36.0144 46.1131 33.1611 47.6381L34.1039 49.4019C37.4373 47.6203 39.8272 44.7501 41.2883 40.8726L39.4167 40.1674ZM33.1611 47.6381C30.2654 49.1858 26.3137 50 21.2325 50V52C26.498 52 30.8129 51.1609 34.1039 49.4019L33.1611 47.6381ZM21.2325 50C16.2067 50 12.2808 49.1864 9.38388 47.6381L8.44112 49.4019C11.7309 51.1602 16.0183 52 21.2325 52V50ZM9.38388 47.6381C6.53063 46.1131 4.44054 43.6499 3.12827 40.1674L1.25673 40.8726C2.7178 44.7501 5.10771 47.6203 8.44112 49.4019L9.38388 47.6381ZM3.12827 40.1674C1.80073 36.6443 1.1125 31.8981 1.1125 25.88H-0.8875C-0.8875 32.0219 -0.189063 37.0357 1.25673 40.8726L3.12827 40.1674ZM1.1125 25.88C1.1125 19.8073 1.80101 15.0349 3.12827 11.5126L1.25673 10.8074C-0.189346 14.6451 -0.8875 19.686 -0.8875 25.88H1.1125ZM3.12827 11.5126C4.44054 8.03005 6.53063 5.56694 9.38388 4.04193L8.44112 2.27806C5.10771 4.05972 2.7178 6.92994 1.25673 10.8074L3.12827 11.5126ZM9.38388 4.04193C12.2808 2.49358 16.2067 1.68 21.2325 1.68V-0.32C16.0183 -0.32 11.7309 0.519749 8.44112 2.27806L9.38388 4.04193ZM21.2325 1.68C26.3137 1.68 30.2654 2.49424 33.1611 4.04193L34.1039 2.27806C30.8129 0.519094 26.498 -0.32 21.2325 -0.32V1.68ZM33.1611 4.04193C36.0144 5.56694 38.1045 8.03005 39.4167 11.5126L41.2883 10.8074C39.8272 6.92994 37.4373 4.05972 34.1039 2.27806L33.1611 4.04193ZM39.4167 11.5126C40.744 15.0349 41.4325 19.8073 41.4325 25.88H43.4325C43.4325 19.686 42.7343 14.6451 41.2883 10.8074L39.4167 11.5126ZM21.2325 41.36C25.0681 41.36 27.9045 40.1002 29.255 37.2707L27.45 36.4093C26.5605 38.2731 24.6502 39.36 21.2325 39.36V41.36ZM29.2509 37.2792C30.526 34.6711 31.1125 30.832 31.1125 25.88H29.1125C29.1125 30.7413 28.5257 34.2089 27.4541 36.4008L29.2509 37.2792ZM31.1125 25.88C31.1125 20.8794 30.5273 17.0335 29.2469 14.4728L27.4581 15.3672C28.5244 17.4998 29.1125 20.9606 29.1125 25.88H31.1125ZM29.255 14.4893C27.9045 11.6598 25.0681 10.4 21.2325 10.4V12.4C24.6502 12.4 26.5605 13.4869 27.45 15.3507L29.255 14.4893ZM21.2325 10.4C17.4395 10.4 14.6218 11.6652 13.2181 14.4728L15.0069 15.3672C15.9498 13.4814 17.8788 12.4 21.2325 12.4V10.4ZM13.21 14.4893C11.9908 17.0439 11.4325 20.8823 11.4325 25.88H13.4325C13.4325 20.9577 13.9942 17.4895 15.015 15.3507L13.21 14.4893ZM11.4325 25.88C11.4325 30.8289 11.992 34.6608 13.2063 37.2629L15.0187 36.4171C13.993 34.2192 13.4325 30.7444 13.4325 25.88H11.4325ZM13.2181 37.2872C14.6218 40.0947 17.4395 41.36 21.2325 41.36V39.36C17.8788 39.36 15.9498 38.2786 15.0069 36.3928L13.2181 37.2872ZM48.5631 15.24H47.5631V16.24H48.5631V15.24ZM48.5631 4.76L48.031 3.91336L47.5631 4.20743V4.76H48.5631ZM55.9231 1.88L55.6846 0.908861L55.9231 1.88ZM79.5231 4.12L78.9745 4.95607L78.9804 4.95992L79.5231 4.12ZM81.7631 25.64L80.9711 25.0295L80.9692 25.0319L81.7631 25.64ZM71.5231 32.2L71.1676 31.2654L71.1663 31.2658L71.5231 32.2ZM61.6831 36.84L62.2549 37.6604L62.2598 37.657L61.6831 36.84ZM59.0431 40.52H58.0431V41.52H59.0431V40.52ZM85.1231 40.52H86.1231V39.52H85.1231V40.52ZM85.1231 50.68V51.68H86.1231V50.68H85.1231ZM47.2031 50.68H46.2031V51.68H47.2031V50.68ZM48.5631 34.76L47.6687 34.3128L47.6637 34.3228L47.6589 34.333L48.5631 34.76ZM53.4431 29.48L52.8709 28.6599L53.4431 29.48ZM62.9631 24.52L62.5751 23.5984H62.5751L62.9631 24.52ZM70.0831 20.84L70.6497 21.6641L70.6549 21.6604L70.0831 20.84ZM72.6431 16.44L71.6435 16.4663L71.6436 16.4712L72.6431 16.44ZM70.3231 12.2L69.8133 13.0603L69.8319 13.0713L69.8509 13.0815L70.3231 12.2ZM56.3231 12.28L56.6279 13.2324L56.6365 13.2297L56.645 13.2268L56.3231 12.28ZM49.2831 15.24V16.24H49.5411L49.7668 16.1152L49.2831 15.24ZM49.5631 15.24V4.76H47.5631V15.24H49.5631ZM49.0953 5.60664C50.8421 4.50863 53.1856 3.58209 56.1617 2.85114L55.6846 0.908861C52.5806 1.67124 50.0175 2.6647 48.031 3.91336L49.0953 5.60664ZM56.1617 2.85114C59.1135 2.12612 62.3391 1.76 65.8431 1.76V-0.240002C62.2005 -0.240002 58.8127 0.140545 55.6846 0.908861L56.1617 2.85114ZM65.8431 1.76C71.4294 1.76 75.777 2.85768 78.9745 4.95605L80.0718 3.28395C76.4426 0.902317 71.6701 -0.240002 65.8431 -0.240002V1.76ZM78.9804 4.95992C82.0793 6.96229 83.7231 10.3743 83.7231 15.48H85.7231C85.7231 9.91902 83.9003 5.75771 80.0658 3.28008L78.9804 4.95992ZM83.7231 15.48C83.7231 19.5398 82.7736 22.6912 80.9711 25.0295L82.5551 26.2505C84.6993 23.4688 85.7231 19.8469 85.7231 15.48H83.7231ZM80.9692 25.0319C79.2142 27.3232 76.0034 29.4256 71.1676 31.2654L71.8787 33.1346C76.8562 31.241 80.472 28.9702 82.557 26.2481L80.9692 25.0319ZM71.1663 31.2658C66.4155 33.0807 63.0313 34.6643 61.1064 36.023L62.2598 37.657C63.9617 36.4557 67.1374 34.9459 71.88 33.1342L71.1663 31.2658ZM61.1113 36.0196C59.2803 37.2958 58.0431 38.7833 58.0431 40.52H60.0431C60.0431 39.8034 60.566 38.8375 62.2549 37.6604L61.1113 36.0196ZM59.0431 41.52H85.1231V39.52H59.0431V41.52ZM84.1231 40.52V50.68H86.1231V40.52H84.1231ZM85.1231 49.68H47.2031V51.68H85.1231V49.68ZM48.2031 50.68V41.72H46.2031V50.68H48.2031ZM48.2031 41.72C48.2031 39.1076 48.6389 36.9415 49.4674 35.187L47.6589 34.333C46.674 36.4185 46.2031 38.8924 46.2031 41.72H48.2031ZM49.4576 35.2072C50.3237 33.4749 51.8187 31.8327 54.0153 30.3001L52.8709 28.6599C50.4809 30.3273 48.7225 32.2051 47.6687 34.3128L49.4576 35.2072ZM54.0153 30.3001C56.228 28.7564 59.3303 27.1346 63.3512 25.4416L62.5751 23.5984C58.4893 25.3187 55.2449 27.0036 52.8709 28.6599L54.0153 30.3001ZM63.3512 25.4416C66.4217 24.1488 68.8641 22.8916 70.6497 21.664L69.5166 20.016C67.8888 21.1351 65.5846 22.3312 62.5751 23.5984L63.3512 25.4416ZM70.6549 21.6604C72.6115 20.2967 73.7093 18.5413 73.6426 16.4088L71.6436 16.4712C71.6836 17.7521 71.0748 18.9299 69.5113 20.0196L70.6549 21.6604ZM73.6428 16.4137C73.5822 14.1116 72.6728 12.3243 70.7953 11.3185L69.8509 13.0815C70.9601 13.6757 71.5974 14.7151 71.6435 16.4663L73.6428 16.4137ZM70.8329 11.3397C69.1727 10.3559 66.9128 9.92 64.1631 9.92V11.92C66.7468 11.92 68.5936 12.3375 69.8133 13.0603L70.8329 11.3397ZM64.1631 9.92C61.4832 9.92 58.7612 10.3948 56.0012 11.3332L56.645 13.2268C59.2184 12.3518 61.723 11.92 64.1631 11.92V9.92ZM56.0183 11.3276C53.3021 12.1968 50.8934 13.2075 48.7994 14.3648L49.7668 16.1152C51.7261 15.0325 54.0109 14.0699 56.6279 13.2324L56.0183 11.3276ZM49.2831 14.24H48.5631V16.24H49.2831V14.24Z" fill="#21E786" mask="url(#path-1-outside-1_1_8149)"/>
</g>
</svg>
