<svg width="71" height="51" viewBox="0 0 71 51" fill="none" xmlns="http://www.w3.org/2000/svg">
<g opacity="0.5">
<mask id="path-1-outside-1_1_8155" maskUnits="userSpaceOnUse" x="-1" y="-1" width="73" height="53" fill="black">
<rect fill="white" x="-1" y="-1" width="73" height="53"/>
<path d="M43.12 25.88C43.12 31.96 42.4267 36.84 41.04 40.52C39.6533 44.2 37.4133 46.8667 34.32 48.52C31.2267 50.1733 27.0933 51 21.92 51C16.8 51 12.6933 50.1733 9.6 48.52C6.50667 46.8667 4.26667 44.2 2.88 40.52C1.49333 36.84 0.8 31.96 0.8 25.88C0.8 19.7467 1.49333 14.84 2.88 11.16C4.26667 7.48 6.50667 4.81333 9.6 3.16C12.6933 1.50666 16.8 0.679999 21.92 0.679999C27.0933 0.679999 31.2267 1.50666 34.32 3.16C37.4133 4.81333 39.6533 7.48 41.04 11.16C42.4267 14.84 43.12 19.7467 43.12 25.88ZM21.92 40.36C25.5467 40.36 27.92 39.1867 29.04 36.84C30.2133 34.44 30.8 30.7867 30.8 25.88C30.8 20.92 30.2133 17.2667 29.04 14.92C27.92 12.5733 25.5467 11.4 21.92 11.4C18.3467 11.4 15.9733 12.5733 14.8 14.92C13.68 17.2667 13.12 20.92 13.12 25.88C13.12 30.7867 13.68 34.44 14.8 36.84C15.9733 39.1867 18.3467 40.36 21.92 40.36ZM49.0906 20.68V7.08L58.4506 1.16H70.4506L70.6106 50.28H58.4506V15H58.0506L49.4906 20.68H49.0906Z"/>
</mask>
<path d="M41.04 40.52L41.9758 40.8726V40.8726L41.04 40.52ZM9.6 48.52L10.0714 47.6381L9.6 48.52ZM2.88 40.52L3.81577 40.1674L2.88 40.52ZM2.88 11.16L3.81577 11.5126L2.88 11.16ZM9.6 3.16L9.12862 2.27806H9.12862L9.6 3.16ZM34.32 3.16L34.7914 2.27806L34.32 3.16ZM41.04 11.16L41.9758 10.8074L41.04 11.16ZM29.04 36.84L28.1416 36.4008L28.1375 36.4093L29.04 36.84ZM29.04 14.92L28.1375 15.3507L28.1415 15.359L28.1456 15.3672L29.04 14.92ZM14.8 14.92L13.9056 14.4728L13.9015 14.481L13.8975 14.4893L14.8 14.92ZM14.8 36.84L13.8938 37.2629L13.8995 37.2751L13.9056 37.2872L14.8 36.84ZM42.12 25.88C42.12 31.8981 41.4318 36.6443 40.1042 40.1674L41.9758 40.8726C43.4216 37.0357 44.12 32.0219 44.12 25.88H42.12ZM40.1042 40.1674C38.792 43.6499 36.7019 46.1131 33.8486 47.6381L34.7914 49.4019C38.1248 47.6203 40.5147 44.7501 41.9758 40.8726L40.1042 40.1674ZM33.8486 47.6381C30.9529 49.1858 27.0012 50 21.92 50V52C27.1855 52 31.5004 51.1609 34.7914 49.4019L33.8486 47.6381ZM21.92 50C16.8942 50 12.9683 49.1864 10.0714 47.6381L9.12862 49.4019C12.4184 51.1602 16.7058 52 21.92 52V50ZM10.0714 47.6381C7.21813 46.1131 5.12804 43.6499 3.81577 40.1674L1.94423 40.8726C3.4053 44.7501 5.79521 47.6203 9.12862 49.4019L10.0714 47.6381ZM3.81577 40.1674C2.48823 36.6443 1.8 31.8981 1.8 25.88H-0.2C-0.2 32.0219 0.498437 37.0357 1.94423 40.8726L3.81577 40.1674ZM1.8 25.88C1.8 19.8073 2.48851 15.0349 3.81577 11.5126L1.94423 10.8074C0.498154 14.6451 -0.2 19.686 -0.2 25.88H1.8ZM3.81577 11.5126C5.12804 8.03005 7.21813 5.56694 10.0714 4.04193L9.12862 2.27806C5.79521 4.05972 3.4053 6.92994 1.94423 10.8074L3.81577 11.5126ZM10.0714 4.04193C12.9683 2.49358 16.8942 1.68 21.92 1.68V-0.32C16.7058 -0.32 12.4184 0.519749 9.12862 2.27806L10.0714 4.04193ZM21.92 1.68C27.0012 1.68 30.9529 2.49424 33.8486 4.04193L34.7914 2.27806C31.5004 0.519094 27.1855 -0.32 21.92 -0.32V1.68ZM33.8486 4.04193C36.7019 5.56694 38.792 8.03005 40.1042 11.5126L41.9758 10.8074C40.5147 6.92994 38.1248 4.05972 34.7914 2.27806L33.8486 4.04193ZM40.1042 11.5126C41.4315 15.0349 42.12 19.8073 42.12 25.88H44.12C44.12 19.686 43.4218 14.6451 41.9758 10.8074L40.1042 11.5126ZM21.92 41.36C25.7556 41.36 28.592 40.1002 29.9425 37.2707L28.1375 36.4093C27.248 38.2731 25.3377 39.36 21.92 39.36V41.36ZM29.9384 37.2792C31.2135 34.6711 31.8 30.832 31.8 25.88H29.8C29.8 30.7413 29.2132 34.2089 28.1416 36.4008L29.9384 37.2792ZM31.8 25.88C31.8 20.8794 31.2148 17.0335 29.9344 14.4728L28.1456 15.3672C29.2119 17.4998 29.8 20.9606 29.8 25.88H31.8ZM29.9425 14.4893C28.592 11.6598 25.7556 10.4 21.92 10.4V12.4C25.3377 12.4 27.248 13.4869 28.1375 15.3507L29.9425 14.4893ZM21.92 10.4C18.127 10.4 15.3093 11.6652 13.9056 14.4728L15.6944 15.3672C16.6373 13.4814 18.5663 12.4 21.92 12.4V10.4ZM13.8975 14.4893C12.6783 17.0439 12.12 20.8823 12.12 25.88H14.12C14.12 20.9577 14.6817 17.4895 15.7025 15.3507L13.8975 14.4893ZM12.12 25.88C12.12 30.8289 12.6795 34.6608 13.8938 37.2629L15.7062 36.4171C14.6805 34.2192 14.12 30.7444 14.12 25.88H12.12ZM13.9056 37.2872C15.3093 40.0947 18.127 41.36 21.92 41.36V39.36C18.5663 39.36 16.6373 38.2786 15.6944 36.3928L13.9056 37.2872ZM49.0906 20.68H48.0906V21.68H49.0906V20.68ZM49.0906 7.08L48.5561 6.23485L48.0906 6.52925V7.08H49.0906ZM58.4506 1.16V0.159998H58.1609L57.9161 0.314852L58.4506 1.16ZM70.4506 1.16L71.4506 1.15674L71.4474 0.159998H70.4506V1.16ZM70.6106 50.28V51.28H71.6139L71.6106 50.2767L70.6106 50.28ZM58.4506 50.28H57.4506V51.28H58.4506V50.28ZM58.4506 15H59.4506V14H58.4506V15ZM58.0506 15V14H57.749L57.4977 14.1668L58.0506 15ZM49.4906 20.68V21.68H49.7922L50.0435 21.5132L49.4906 20.68ZM50.0906 20.68V7.08H48.0906V20.68H50.0906ZM49.6252 7.92514L58.9852 2.00514L57.9161 0.314852L48.5561 6.23485L49.6252 7.92514ZM58.4506 2.16H70.4506V0.159998H58.4506V2.16ZM69.4506 1.16326L69.6106 50.2833L71.6106 50.2767L71.4506 1.15674L69.4506 1.16326ZM70.6106 49.28H58.4506V51.28H70.6106V49.28ZM59.4506 50.28V15H57.4506V50.28H59.4506ZM58.4506 14H58.0506V16H58.4506V14ZM57.4977 14.1668L48.9377 19.8468L50.0435 21.5132L58.6035 15.8332L57.4977 14.1668ZM49.4906 19.68H49.0906V21.68H49.4906V19.68Z" fill="#21E786" mask="url(#path-1-outside-1_1_8155)"/>
</g>
</svg>
