<svg width="1309" height="602" viewBox="0 0 1309 602" fill="none" xmlns="http://www.w3.org/2000/svg">
<rect x="0.5" y="1.02148" width="1307.4" height="599.724" rx="4.5" stroke="#9747FF" stroke-dasharray="10 5"/>
<g filter="url(#filter0_f_1_2892)">
<path d="M254.653 101.068L254.653 217.405L336.931 135.128L385.941 184.138L303.663 266.415L420 266.415L420 335.722L303.663 335.722L385.941 417.999L336.931 467.009L254.653 384.732L254.653 501.068L185.347 501.068L185.347 384.732L103.069 467.009L54.0594 417.999L136.337 335.722L20 335.722L20 266.415L136.337 266.415L54.0594 184.138L103.069 135.128L185.347 217.405L185.347 101.068L254.653 101.068Z" fill="url(#paint0_linear_1_2892)"/>
</g>
<g filter="url(#filter1_f_1_2892)">
<path d="M1288.4 349.461H1125.32L1240.66 464.798L1171.95 533.5L1056.62 418.163V581.245H959.463V418.163L844.126 533.5L775.423 464.798L890.76 349.461H727.679V252.306L890.76 252.306L775.423 136.969L844.126 68.2663L959.463 183.603V20.5215L1056.62 20.5215V183.603L1171.95 68.2663L1240.66 136.969L1125.32 252.306H1288.4V349.461Z" fill="url(#paint1_linear_1_2892)"/>
</g>
<defs>
<filter id="filter0_f_1_2892" x="8" y="89.0684" width="424" height="424" filterUnits="userSpaceOnUse" color-interpolation-filters="sRGB">
<feFlood flood-opacity="0" result="BackgroundImageFix"/>
<feBlend mode="normal" in="SourceGraphic" in2="BackgroundImageFix" result="shape"/>
<feGaussianBlur stdDeviation="6" result="effect1_foregroundBlur_1_2892"/>
</filter>
<filter id="filter1_f_1_2892" x="715.679" y="8.52148" width="584.724" height="584.724" filterUnits="userSpaceOnUse" color-interpolation-filters="sRGB">
<feFlood flood-opacity="0" result="BackgroundImageFix"/>
<feBlend mode="normal" in="SourceGraphic" in2="BackgroundImageFix" result="shape"/>
<feGaussianBlur stdDeviation="6" result="effect1_foregroundBlur_1_2892"/>
</filter>
<linearGradient id="paint0_linear_1_2892" x1="20" y1="301.068" x2="420" y2="301.068" gradientUnits="userSpaceOnUse">
<stop stop-color="#1D2328"/>
<stop offset="1" stop-color="#1D2328" stop-opacity="0"/>
</linearGradient>
<linearGradient id="paint1_linear_1_2892" x1="1008.04" y1="20.5215" x2="1008.04" y2="581.245" gradientUnits="userSpaceOnUse">
<stop stop-color="#1D2328"/>
<stop offset="1" stop-color="#1D2328" stop-opacity="0"/>
</linearGradient>
</defs>
</svg>
